<svg width="45" height="45" viewBox="0 0 45 45" fill="none" xmlns="http://www.w3.org/2000/svg">
<g clip-path="url(#clip0)">
<path d="M35.5642 27.876C34.6429 26.9168 33.5317 26.4039 32.354 26.4039C31.1858 26.4039 30.0651 26.9073 29.1058 27.8665L26.1046 30.8583C25.8577 30.7253 25.6107 30.6018 25.3733 30.4784C25.0314 30.3074 24.7085 30.1459 24.433 29.975C21.6218 28.1894 19.0669 25.8625 16.6165 22.8518C15.4293 21.3512 14.6316 20.088 14.0522 18.8059C14.831 18.0935 15.5528 17.3527 16.2556 16.6404C16.5216 16.3745 16.7875 16.0991 17.0534 15.8331C19.0479 13.8386 19.0479 11.2553 17.0534 9.26082L14.4606 6.66798C14.1662 6.37356 13.8622 6.06964 13.5773 5.76571C13.0075 5.17687 12.4091 4.56902 11.7918 3.99917C10.8705 3.0874 9.7688 2.60303 8.6101 2.60303C7.4514 2.60303 6.33069 3.0874 5.38093 3.99917C5.37143 4.00867 5.37143 4.00867 5.36194 4.01816L2.13277 7.27583C0.917078 8.49151 0.223757 9.97313 0.0717959 11.6922C-0.156145 14.4655 0.660644 17.0488 1.28748 18.7394C2.82609 22.8898 5.1245 26.7363 8.55311 30.8583C12.713 35.8255 17.7183 39.748 23.4358 42.5118C25.6202 43.547 28.536 44.7722 31.7936 44.9811C31.9931 44.9906 32.202 45.0001 32.392 45.0001C34.5859 45.0001 36.4284 44.2118 37.8721 42.6447C37.8816 42.6257 37.9006 42.6162 37.9101 42.5972C38.4039 41.9989 38.9738 41.4575 39.5721 40.8782C39.9805 40.4888 40.3984 40.0804 40.8068 39.653C41.7471 38.6748 42.241 37.535 42.241 36.3668C42.241 35.1892 41.7376 34.0589 40.7783 33.1092L35.5642 27.876ZM38.9643 37.877C38.9548 37.877 38.9548 37.8865 38.9643 37.877C38.5939 38.2759 38.214 38.6368 37.8056 39.0357C37.1883 39.6245 36.5614 40.2419 35.9726 40.9352C35.0133 41.9609 33.8831 42.4453 32.4015 42.4453C32.259 42.4453 32.1071 42.4453 31.9646 42.4358C29.1438 42.2553 26.5225 41.1536 24.5565 40.2134C19.1809 37.611 14.4606 33.9165 10.5381 29.2342C7.29944 25.3307 5.13399 21.7216 3.69986 17.8466C2.81659 15.4817 2.49367 13.6392 2.63614 11.9011C2.73111 10.7899 3.1585 9.86866 3.9468 9.08036L7.18547 5.84169C7.65085 5.40481 8.14472 5.16737 8.6291 5.16737C9.22744 5.16737 9.71182 5.52828 10.0157 5.8322C10.0252 5.84169 10.0347 5.85119 10.0442 5.86069C10.6236 6.40205 11.1744 6.96241 11.7538 7.56075C12.0482 7.86468 12.3521 8.1686 12.6561 8.48202L15.2489 11.0749C16.2556 12.0816 16.2556 13.0124 15.2489 14.0191C14.9735 14.2945 14.7075 14.57 14.4321 14.8359C13.6343 15.6527 12.8745 16.4125 12.0482 17.1533C12.0292 17.1723 12.0102 17.1818 12.0007 17.2008C11.1839 18.0176 11.3359 18.8154 11.5069 19.3567C11.5164 19.3852 11.5259 19.4137 11.5353 19.4422C12.2097 21.0758 13.1594 22.6144 14.6031 24.4474L14.6126 24.4569C17.2339 27.6861 19.9977 30.2029 23.0464 32.1309C23.4358 32.3779 23.8347 32.5773 24.2146 32.7673C24.5565 32.9382 24.8794 33.0997 25.1548 33.2706C25.1928 33.2896 25.2308 33.3181 25.2688 33.3371C25.5917 33.4986 25.8957 33.5746 26.2091 33.5746C26.9974 33.5746 27.4912 33.0807 27.6527 32.9192L30.9009 29.6711C31.2238 29.3482 31.7367 28.9588 32.335 28.9588C32.9238 28.9588 33.4082 29.3292 33.7026 29.6521C33.7121 29.6616 33.7121 29.6616 33.7216 29.6711L38.9548 34.9042C39.933 35.873 39.933 36.8702 38.9643 37.877Z" fill="#00A3FF"/>
<path d="M24.319 10.7042C26.8074 11.1221 29.0678 12.2997 30.8723 14.1043C32.6769 15.9088 33.8451 18.1692 34.2725 20.6576C34.3769 21.2844 34.9183 21.7213 35.5357 21.7213C35.6116 21.7213 35.6781 21.7118 35.7541 21.7023C36.4569 21.5884 36.9223 20.9235 36.8083 20.2207C36.2955 17.21 34.8708 14.4652 32.6959 12.2903C30.5209 10.1153 27.7761 8.69068 24.7654 8.17781C24.0626 8.06384 23.4073 8.52922 23.2838 9.22254C23.1603 9.91586 23.6162 10.5902 24.319 10.7042Z" fill="#00A3FF"/>
<path d="M44.9477 19.8504C44.1025 14.8927 41.7661 10.3814 38.176 6.79131C34.5859 3.20123 30.0746 0.86483 25.1168 0.0195474C24.4235 -0.103921 23.7682 0.370957 23.6447 1.06428C23.5307 1.7671 23.9961 2.42243 24.6989 2.5459C29.1248 3.2962 33.1613 5.39516 36.3714 8.59584C39.5816 11.806 41.6711 15.8425 42.4214 20.2683C42.5259 20.8952 43.0672 21.3321 43.6846 21.3321C43.7605 21.3321 43.827 21.3226 43.903 21.3131C44.5963 21.2086 45.0712 20.5438 44.9477 19.8504Z" fill="#00A3FF"/>
</g>
<defs>
<clipPath id="clip0">
<rect width="45" height="45" fill="white"/>
</clipPath>
</defs>
</svg>
