<svg width="49" height="49" viewBox="0 0 49 49" fill="none" xmlns="http://www.w3.org/2000/svg">
<g clip-path="url(#clip0)">
<path d="M43.0182 5.85498H5.99193C2.68674 5.85498 0 8.54172 0 11.8469V37.1529C0 40.4581 2.68674 43.1449 5.99193 43.1449H43.0081C46.3133 43.1449 49 40.4581 49 37.1529V11.857C49.0101 8.55186 46.3234 5.85498 43.0182 5.85498ZM46.2727 37.1529C46.2727 38.9475 44.8127 40.4074 43.0182 40.4074H5.99193C4.19739 40.4074 2.73743 38.9475 2.73743 37.1529V11.857C2.73743 10.0625 4.19739 8.60255 5.99193 8.60255H43.0081C44.8026 8.60255 46.2626 10.0625 46.2626 11.857V37.1529H46.2727Z" fill="#00A3FF"/>
<path d="M30.9025 24.1855L42.8864 13.4386C43.444 12.9316 43.4947 12.0698 42.9878 11.5021C42.4809 10.9445 41.6191 10.8938 41.0513 11.4007L24.5253 26.2335L21.3013 23.3541C21.2911 23.344 21.281 23.3339 21.281 23.3237C21.21 23.2528 21.139 23.1919 21.0579 23.1311L7.93855 11.3906C7.37078 10.8836 6.509 10.9343 6.00207 11.5021C5.49514 12.0698 5.54583 12.9316 6.11359 13.4386L18.2394 24.2768L6.16429 35.5813C5.6168 36.0984 5.58638 36.9602 6.10345 37.5178C6.3772 37.8017 6.74219 37.9538 7.10718 37.9538C7.44175 37.9538 7.77633 37.8321 8.03993 37.5888L20.2975 26.122L23.623 29.0926C23.8866 29.3258 24.211 29.4373 24.5355 29.4373C24.8599 29.4373 25.1945 29.3157 25.448 29.0825L28.8647 26.0206L41.0513 37.5989C41.3149 37.8524 41.6596 37.974 41.9942 37.974C42.3592 37.974 42.7141 37.8321 42.9878 37.5482C43.5049 37.0007 43.4846 36.1288 42.9371 35.6117L30.9025 24.1855Z" fill="#00A3FF"/>
</g>
<defs>
<clipPath id="clip0">
<rect width="49" height="49" fill="white"/>
</clipPath>
</defs>
</svg>
