<svg width="94" height="94" viewBox="0 0 94 94" fill="none" xmlns="http://www.w3.org/2000/svg">
<g clip-path="url(#clip0)">
<path d="M25.6857 92.8308C30.0632 92.8308 30.1606 78.8069 28.0725 64.3885C25.984 49.9702 22.6034 44.6979 20.0174 44.6979C17.4331 44.6979 15.7411 47.4812 15.7411 47.4812C13.8505 62.1999 21.1845 88.3048 21.1845 88.3048C22.4131 93.154 25.6857 92.8308 25.6857 92.8308Z" fill="white"/>
<path d="M73.8917 88.8704C73.8917 88.8704 80.2563 62.5112 77.8237 47.8731C77.8237 47.8731 76.0309 45.1528 73.4457 45.2486C70.8623 45.3432 67.6758 50.7376 66.1236 65.2249C64.5727 79.7095 65.1898 93.7194 69.5625 93.556C69.5605 93.556 72.8444 93.7599 73.8917 88.8704Z" fill="white"/>
<path d="M1.48674 55.4708C1.5124 59.1027 2.24546 64.3977 5.40059 69.9591C5.40059 69.9591 6.37694 78.9072 8.62331 81.9906C9.89494 83.7349 11.9049 85.0328 13.41 85.8298C13.971 86.7157 20.5135 92.133 20.5135 92.133C20.5135 92.133 16.5376 80.3997 14.8451 68.7646C13.1552 57.1333 13.7522 47.7813 13.7522 47.7813L9.67341 52.0566C9.67341 52.0566 9.11927 52.7532 8.81688 55.4965L8.08107 56.1345C8.08107 56.1345 7.48409 55.2789 6.45757 54.357C5.46428 53.4645 4.83774 51.7957 5.25077 50.3683C5.66106 48.9409 5.50643 46.7135 4.90326 45.3958C4.29917 44.0775 3.85475 40.8277 4.45014 38.2252C5.70917 32.7096 9.44639 23.2526 20.5151 14.3194C20.5151 14.3194 23.5079 13.3055 36.7744 9.84544C53.9301 5.37034 66.6786 13.9421 66.6786 13.9421C66.6786 13.9421 71.6323 15.6648 72.6267 14.9665C72.6267 14.9665 85.2347 23.1241 89.22 38.4648C89.8921 41.049 89.5267 44.2983 88.7857 45.6433C88.045 46.9886 87.8006 49.1503 88.2395 50.4666C88.6773 51.7858 88.333 53.4648 87.6235 54.357C87.1876 54.9059 86.7734 55.5405 86.5989 56.1345L85.3311 55.4138C85.3311 55.4138 84.8097 52.8783 84.3619 52.2807C83.9138 51.6841 80.5584 49.4485 80.5584 49.4485C80.5584 49.4485 82.3762 61.5069 76.0096 90.0456C76.0096 90.0456 83.6689 86.2678 86.5505 81.6924C89.4358 77.1179 89.1375 70.4548 89.1375 70.4548C89.1375 70.4548 93.0115 62.7994 92.7149 57.2288C92.6361 55.7544 92.5442 54.5518 92.4516 53.5825C92.256 51.5721 92.4553 48.9445 93.1153 47.6814C93.7698 46.4189 94.2902 43.2216 93.8174 40.5934C92.6168 33.94 88.4911 21.5508 74.3673 11.0362C74.3673 11.0362 65.8636 0.248081 45.3801 0.445549C24.8929 0.642788 19.3264 10.8871 19.3264 10.8871C19.3264 10.8871 3.64537 19.8444 0.187165 40.4468C-0.253358 43.0794 0.141349 46.4586 0.774758 47.9558C1.40771 49.4531 1.47094 52.8014 1.48674 55.4708Z" fill="white"/>
</g>
<defs>
<clipPath id="clip0">
<rect width="94" height="94" fill="white"/>
</clipPath>
</defs>
</svg>
