<svg width="71" height="71" viewBox="0 0 71 71" fill="none" xmlns="http://www.w3.org/2000/svg">
<path d="M69.0705 29.7855C68.217 29.7855 67.5251 30.4772 67.5251 31.3309C67.5251 35.2837 64.3094 38.4993 60.3565 38.4993C59.6054 38.4993 58.8573 38.3794 58.1326 38.1429C57.6691 37.9918 57.1612 38.0679 56.7627 38.3487C56.3642 38.6296 56.1215 39.0823 56.1083 39.5698C56.0011 43.4782 52.8576 46.5398 48.9514 46.5398C46.8692 46.5398 44.8909 45.63 43.5238 44.0436C43.2301 43.703 42.8028 43.5071 42.3532 43.5071C41.9036 43.5071 41.4762 43.7028 41.1826 44.0436C39.8154 45.63 37.8371 46.5398 35.7549 46.5398C33.545 46.5398 31.4904 45.5367 30.1177 43.7877C29.8247 43.4143 29.3765 43.1965 28.902 43.1965C28.4274 43.1965 27.9793 43.4145 27.6862 43.7877C26.3135 45.5367 24.2587 46.5398 22.049 46.5398C20.6068 46.5398 19.2176 46.1134 18.0312 45.3065C17.3254 44.8262 16.3642 45.0094 15.8843 45.7151C15.4042 46.4209 15.5874 47.3821 16.2931 47.862C17.9941 49.019 19.9846 49.6306 22.049 49.6306C24.6146 49.6306 27.0328 48.6885 28.902 46.9997C30.7711 48.6883 33.1893 49.6306 35.7549 49.6306C38.1853 49.6306 40.5158 48.7666 42.3532 47.2191C44.1905 48.7666 46.521 49.6306 48.9514 49.6306C51.6419 49.6306 54.1833 48.596 56.1079 46.717C57.5793 45.2802 58.5677 43.471 58.9819 41.4968C59.4375 41.559 59.8966 41.5901 60.3567 41.5901C66.0137 41.5901 70.6161 36.9879 70.6161 31.3309C70.6159 30.4772 69.924 29.7855 69.0705 29.7855Z" fill="white"/>
<path d="M13.8266 41.081C14.6381 40.816 15.0809 39.9436 14.8161 39.1321C14.5511 38.3209 13.6785 37.8781 12.8674 38.1427C12.1427 38.3792 11.3946 38.4991 10.6435 38.4991C6.69076 38.4991 3.47488 35.2834 3.47488 31.3307C3.47488 29.2891 4.35741 27.3357 5.89643 25.9715C6.22714 25.678 6.41651 25.2571 6.41651 24.8151C6.41651 24.3731 6.22714 23.9521 5.89643 23.6589C4.35762 22.2942 3.47488 20.3408 3.47488 18.2994C3.47488 14.3465 6.69056 11.1308 10.6435 11.1308C11.3942 11.1308 12.1423 11.2508 12.8676 11.4873C13.3313 11.6385 13.8388 11.5621 14.2373 11.2812C14.6358 11.0004 14.8783 10.5477 14.8917 10.0604C14.9991 6.15236 18.1426 3.09081 22.0488 3.09081C24.2587 3.09081 26.3135 4.09388 27.686 5.84266C27.979 6.21624 28.4272 6.43404 28.9017 6.43404C29.3763 6.43404 29.8246 6.21582 30.1174 5.84266C31.49 4.09388 33.5445 3.09081 35.7547 3.09081C36.6081 3.09081 37.3001 2.39909 37.3001 1.5454C37.3001 0.691723 36.6081 0 35.7547 0C33.1889 0 30.7708 0.942079 28.9017 2.63069C27.0324 0.942079 24.6146 0 22.0488 0C19.3583 0 16.8169 1.0346 14.8925 2.9136C13.4211 4.35021 12.4327 6.15957 12.0185 8.13357C11.5629 8.07134 11.1038 8.04023 10.6437 8.04023C4.9867 8.04023 0.384277 12.6426 0.384277 18.2997C0.384277 20.6872 1.22498 22.989 2.73061 24.8153C1.22498 26.6413 0.384277 28.9432 0.384277 31.3309C0.384277 36.9879 4.98649 41.5901 10.6437 41.5901C11.7207 41.5901 12.7918 41.4189 13.8266 41.081Z" fill="white"/>
<path d="M41.3441 5.7487C41.9907 6.30587 42.9666 6.23334 43.5238 5.58695C44.8907 4.00054 46.8691 3.09081 48.9512 3.09081C52.8576 3.09081 56.0012 6.15215 56.1081 10.0606C56.1213 10.5479 56.364 11.0006 56.7625 11.2815C57.161 11.5623 57.6685 11.6387 58.1322 11.4875C58.8575 11.251 59.6059 11.131 60.3563 11.131C64.309 11.131 67.5249 14.3467 67.5249 18.2996C67.5249 20.341 66.6422 22.2944 65.1034 23.6591C64.4646 24.2253 64.4061 25.202 64.9723 25.8406C65.2777 26.1851 65.7024 26.3607 66.1293 26.3607C66.4938 26.3607 66.8598 26.2325 67.154 25.9714C69.3541 24.0207 70.6159 21.2246 70.6159 18.2996C70.6159 12.6426 66.0137 8.04022 60.3565 8.04022C59.8964 8.04022 59.4375 8.07134 58.9817 8.13357C58.5676 6.15957 57.5791 4.35021 56.1077 2.9136C54.1833 1.0346 51.6417 0 48.9512 0C45.9686 0 43.137 1.30082 41.1822 3.56906C40.6252 4.21586 40.6977 5.19153 41.3441 5.7487Z" fill="white"/>
<path d="M26.6467 51.9048C22.4141 51.9048 19.0989 54.1304 19.0989 56.9716C19.0989 59.8129 22.4143 62.0385 26.6467 62.0385C30.879 62.0385 34.1944 59.8129 34.1944 56.9716C34.1944 54.1304 30.879 51.9048 26.6467 51.9048ZM26.6467 58.9477C23.9674 58.9477 22.1897 57.7584 22.1897 56.9716C22.1897 56.1849 23.9674 54.9956 26.6467 54.9956C29.326 54.9956 31.1036 56.1849 31.1036 56.9716C31.1036 57.7584 29.326 58.9477 26.6467 58.9477Z" fill="white"/>
<path d="M19.6839 64.4574C18.8304 64.4574 18.1385 65.1491 18.1385 66.0028C18.1385 66.9026 16.6089 67.9092 14.5618 67.9092C12.5146 67.9092 10.9851 66.9026 10.9851 66.0028C10.9851 65.1028 12.5146 64.0962 14.5618 64.0962C15.4153 64.0962 16.1072 63.4045 16.1072 62.5508C16.1072 61.6971 15.4153 61.0054 14.5618 61.0054C10.8229 61.0054 7.89429 63.2005 7.89429 66.0028C7.89429 68.8051 10.8231 71 14.5618 71C18.3004 71 21.2293 68.8051 21.2293 66.0028C21.2293 65.1493 20.5373 64.4574 19.6839 64.4574Z" fill="white"/>
</svg>
