<svg width="87" height="87" viewBox="0 0 87 87" fill="none" xmlns="http://www.w3.org/2000/svg">
<path d="M85.1116 39.5995C86.8241 37.9305 87.4286 35.4812 86.6899 33.2042C85.9495 30.9273 84.021 29.302 81.6518 28.957L60.5864 25.8962C59.6893 25.7655 58.914 25.2028 58.5133 24.3893L49.0956 5.30119C48.0382 3.15667 45.8919 1.82397 43.5 1.82397C41.1099 1.82397 38.9636 3.15667 37.9062 5.30119L28.4867 24.3893C28.086 25.2028 27.309 25.7655 26.4118 25.8962L5.34648 28.9588C2.97898 29.302 1.05049 30.9273 0.310097 33.2042C-0.42855 35.4812 0.175956 37.9305 1.88843 39.5995L17.13 54.456C17.7798 55.0901 18.0777 56.003 17.9244 56.8949L14.327 77.8749C13.9228 80.232 14.8722 82.5681 16.8077 83.9757C18.7414 85.3851 21.2587 85.568 23.3789 84.4513L42.2178 74.5458C43.0209 74.1242 43.9791 74.1242 44.7822 74.5458L63.6229 84.4513C64.5427 84.9356 65.5392 85.1743 66.5304 85.1743C67.8178 85.1743 69.1 84.7719 70.1941 83.9757C72.1295 82.5681 73.079 80.232 72.6748 77.8749L69.0756 56.8967C68.9223 56.003 69.2202 55.0919 69.87 54.4578L85.1116 39.5995ZM65.6437 57.4855L69.2411 78.4638C69.4223 79.5195 69.0129 80.5281 68.1454 81.1588C67.2761 81.7877 66.1942 81.8643 65.2448 81.3696L46.4041 71.4623C45.4964 70.9867 44.4965 70.7463 43.5 70.7463C42.5035 70.7463 41.5053 70.9867 40.5959 71.464L21.7587 81.3696C20.8058 81.8643 19.724 81.7877 18.8564 81.1588C17.9888 80.5281 17.5812 79.5212 17.7606 78.4638L21.358 57.4855C21.7047 55.4612 21.034 53.3951 19.5637 51.9631L4.32039 37.1048C3.55213 36.3557 3.29081 35.3 3.62355 34.2809C3.95455 33.26 4.78553 32.5597 5.84646 32.4046L26.9101 29.3438C28.9431 29.0494 30.7009 27.7742 31.6085 25.931L41.028 6.84294C41.5018 5.8813 42.4269 5.30816 43.4983 5.30816C44.5714 5.30816 45.4947 5.8813 45.9703 6.84294L55.3898 25.931C56.2974 27.7742 58.0534 29.0494 60.0865 29.3438L81.1518 32.4046C82.2127 32.5597 83.0437 33.26 83.3747 34.2809C83.7057 35.3 83.4461 36.3557 82.6779 37.1048L67.4363 51.9613C65.966 53.3951 65.2953 55.4595 65.6437 57.4855Z" fill="white" fill-opacity="0.83"/>
</svg>
