<svg width="72" height="72" viewBox="0 0 72 72" fill="none" xmlns="http://www.w3.org/2000/svg">
<path d="M28.1148 20.4H56.4C57.0624 20.4 57.6 19.8636 57.6 19.2C57.6 18.5364 57.0624 18 56.4 18H28.1148C27.4524 18 26.9148 18.5364 26.9148 19.2C26.9148 19.8636 27.4524 20.4 28.1148 20.4Z" fill="white"/>
<path d="M28.1148 38.4H56.4C57.0624 38.4 57.6 37.8636 57.6 37.2C57.6 36.5364 57.0624 36 56.4 36H28.1148C27.4524 36 26.9148 36.5364 26.9148 37.2C26.9148 37.8636 27.4524 38.4 28.1148 38.4Z" fill="white"/>
<path d="M28.1148 56.4H56.4C57.0624 56.4 57.6 55.8636 57.6 55.2C57.6 54.5364 57.0624 54 56.4 54H28.1148C27.4524 54 26.9148 54.5364 26.9148 55.2C26.9148 55.8636 27.4524 56.4 28.1148 56.4Z" fill="white"/>
<path d="M70.8 0H1.2C0.5376 0 0 0.5364 0 1.2V70.8C0 71.4636 0.5376 72 1.2 72H70.8C71.4624 72 72 71.4636 72 70.8V1.2C72 0.5364 71.4624 0 70.8 0ZM69.6 69.6H2.4V2.4H69.6V69.6Z" fill="white"/>
<path d="M15.0012 22.1688L17.9148 20.6364L20.8284 22.1688L20.2728 18.924L22.6296 16.6248L19.3716 16.152L17.9148 13.2L16.458 16.152L13.2 16.6248L15.558 18.924L15.0012 22.1688Z" fill="white"/>
<path d="M15.0012 40.2684L17.9148 38.736L20.8284 40.2684L20.2728 37.0236L22.6296 34.7256L19.3716 34.2516L17.9148 31.2996L16.458 34.2516L13.2 34.7256L15.558 37.0236L15.0012 40.2684Z" fill="white"/>
<path d="M15.0012 58.8L17.9148 57.2676L20.8284 58.8L20.2728 55.5552L22.6296 53.2572L19.3716 52.7832L17.9148 49.8312L16.458 52.7832L13.2 53.2572L15.558 55.5552L15.0012 58.8Z" fill="white"/>
</svg>
