<svg width="89" height="89" viewBox="0 0 89 89" fill="none" xmlns="http://www.w3.org/2000/svg">
<g clip-path="url(#clip0)">
<path d="M19.0922 86.2549L16.4752 82.5687C15.9196 81.7858 14.8344 81.6017 14.0515 82.1574C13.2688 82.7131 13.0845 83.7982 13.6404 84.5811L16.2574 88.2674C16.5963 88.7449 17.1321 88.9996 17.6763 88.9996C18.0243 88.9996 18.3756 88.8953 18.6811 88.6785C19.4638 88.1228 19.6481 87.0378 19.0922 86.2549Z" fill="white"/>
<path d="M39.147 86.9043L36.299 73.3304C34.9141 66.7299 31.069 61.0224 25.4725 57.2592L19.3918 53.1705C16.9536 51.5313 13.6762 51.8838 11.6383 53.9619V33.0164C11.6383 30.2671 9.76388 27.9312 7.07999 27.3355C5.3478 26.9507 3.5612 27.3675 2.17736 28.4778C0.79369 29.588 0.000167847 31.2423 0.000167847 33.0164V59.9687C0.000167847 63.4996 1.08068 66.8881 3.12472 69.7675L6.22458 74.1342C6.56354 74.6117 7.09928 74.8664 7.64353 74.8664C7.99154 74.8664 8.34284 74.7621 8.64826 74.5453C9.431 73.9896 9.61526 72.9046 9.05936 72.1216L5.95949 67.7549C4.33525 65.4668 3.47672 62.7744 3.47672 59.9685V33.0164C3.47672 32.3023 3.79621 31.6364 4.35315 31.1893C4.90992 30.7424 5.62905 30.5746 6.32679 30.7295C7.40713 30.9692 8.16171 31.9096 8.16171 33.0164V54.3999C8.16171 57.427 9.27386 60.3109 11.2943 62.5547C11.3808 62.6585 11.4698 62.7612 11.5639 62.8608C12.7183 64.084 14.0755 65.5254 15.3538 66.8841L17.1434 68.7887C17.1491 68.7948 17.1554 68.8 17.1613 68.8059C18.6922 70.4341 19.8212 71.6365 19.8448 71.6615C20.5017 72.3612 21.6021 72.3959 22.3019 71.7387C23.0017 71.0815 23.0363 69.9815 22.3789 69.2817C22.3473 69.2479 20.3124 67.0812 17.9887 64.6113L14.003 60.3694C13.9929 60.3586 13.9837 60.3473 13.9736 60.3365C13.0391 59.2188 13.0508 57.5982 14.0303 56.4923C14.8968 55.5143 16.3681 55.3266 17.4523 56.0555L23.5326 60.1442C28.3733 63.3992 31.6988 68.3355 32.8965 74.0444L35.7447 87.6184C35.9166 88.4376 36.6392 88.9999 37.4442 88.9999C37.5624 88.9999 37.6825 88.9878 37.8028 88.9626C38.7423 88.7655 39.3441 87.8438 39.147 86.9043Z" fill="white"/>
<path d="M12.8787 77.5024L12.8676 77.4867C12.3096 76.7052 11.2242 76.5237 10.4429 77.0814C9.66151 77.639 9.48003 78.7245 10.0375 79.5059L10.0486 79.5215C10.3879 79.997 10.9225 80.2504 11.4651 80.2504C11.8145 80.2504 12.1672 80.1454 12.4733 79.9269C13.2545 79.3693 13.4362 78.2837 12.8787 77.5024Z" fill="white"/>
<path d="M86.8225 28.4779C85.4388 27.3677 83.6513 26.9516 81.92 27.3357C79.2361 27.9313 77.3616 30.2673 77.3616 33.0166V53.9621C75.3238 51.884 72.0461 51.5315 69.608 53.1707L63.5273 57.2593C57.9306 61.0223 54.0857 66.7299 52.7008 73.3305L49.8528 86.9045C49.6557 87.844 50.2575 88.7655 51.197 88.9626C51.3173 88.9878 51.4376 89 51.5557 89C52.3608 89 53.0832 88.4375 53.2552 87.6182L56.1032 74.0442C57.301 68.3355 60.6263 63.399 65.4671 60.1443L71.5477 56.0557C72.6315 55.3266 74.1028 55.5144 74.9697 56.4923C75.948 57.5968 75.961 59.2148 75.03 60.3325C75.0189 60.3447 75.0083 60.3572 74.9972 60.3694C74.9972 60.3694 66.6526 69.2483 66.6211 69.2817C65.9639 69.9815 65.9985 71.0815 66.6981 71.7387C67.3979 72.396 68.4979 72.3614 69.1552 71.6615C69.1788 71.6365 76.2817 64.0842 77.4361 62.861C77.5302 62.7614 77.6192 62.6587 77.7057 62.5549C79.726 60.3111 80.8383 57.4272 80.8383 54.4001V33.0164C80.8383 31.9097 81.5929 30.9692 82.6734 30.7295C83.3709 30.5748 84.0899 30.7426 84.647 31.1893C85.204 31.6362 85.5235 32.3022 85.5235 33.0164V59.9687C85.5235 62.7746 84.6649 65.467 83.0407 67.7551L69.9078 86.2551C69.3521 87.0378 69.5362 88.123 70.3189 88.6787C70.6245 88.8955 70.9757 88.9998 71.3237 88.9998C71.8677 88.9998 72.4037 88.745 72.7426 88.2676L85.8755 69.7677C87.9195 66.8882 89 63.4998 89 59.9689V33.0164C88.9995 31.2423 88.2061 29.5882 86.8225 28.4779Z" fill="white"/>
<path d="M66.5165 33.3158L63.4239 32.577V32.0225C65.4339 30.6145 66.7518 28.283 66.7518 25.6481V21.6276C66.7518 17.3378 63.2619 13.8478 58.972 13.8478C57.0469 13.8478 55.2843 14.5522 53.9244 15.7147C52.4104 12.007 48.7673 9.38672 44.5217 9.38672C40.271 9.38672 36.6241 12.0138 35.1135 15.7286C33.7516 14.5577 31.9825 13.8475 30.0496 13.8475C25.7597 13.8475 22.2697 17.3374 22.2697 21.6273V21.8945V25.6478C22.2697 28.2826 23.5877 30.6142 25.5977 32.0222V32.5767L22.5051 33.3155C18.8127 34.1976 16.2337 37.4651 16.2337 41.2615V44.5079C16.2337 45.4679 17.0121 46.2461 17.972 46.2461H25.9597C25.9474 46.457 25.9389 46.6689 25.9389 46.8825V53.133C25.9389 54.0931 26.7173 54.8713 27.6772 54.8713H38.1259C39.0858 54.8713 39.8642 54.0931 39.8642 53.133C39.8642 52.173 39.0858 51.3947 38.1259 51.3947H36.3299V47.8026C36.3299 46.8425 35.5515 46.0643 34.5917 46.0643C33.6318 46.0643 32.8534 46.8425 32.8534 47.8026V51.3951H29.4156V46.8829C29.4156 43.5303 31.6927 40.6432 34.9527 39.862L39.7229 38.7189L42.9152 45.9817C43.1926 46.6129 43.817 47.0205 44.5063 47.0205H44.5064C45.1958 47.0205 45.8202 46.6131 46.0976 45.9819L49.2867 38.7298L54.0417 39.8658C57.3048 40.6454 59.5839 43.5329 59.5839 46.8879V51.3951H56.1461V47.8026C56.1461 46.8425 55.3677 46.0643 54.4078 46.0643C53.4479 46.0643 52.6695 46.8425 52.6695 47.8026V51.3951H50.6996C49.7397 51.3951 48.9613 52.1733 48.9613 53.1334C48.9613 54.0934 49.7397 54.8716 50.6996 54.8716H61.3223C62.2822 54.8716 63.0606 54.0934 63.0606 53.1334V46.8879C63.0606 46.6725 63.0519 46.4591 63.0394 46.2465H71.0497C72.0096 46.2465 72.788 45.4683 72.788 44.5082V41.2618C72.788 37.4654 70.2091 34.1978 66.5165 33.3158ZM58.972 17.324C61.2495 17.324 63.1192 19.1025 63.2659 21.3434H60.8492C58.8175 21.3434 56.8181 20.8543 55.0209 19.9229C55.682 18.3953 57.2044 17.324 58.972 17.324ZM54.6687 25.394C54.6708 25.3093 54.6752 25.225 54.6752 25.1398V23.5917C56.6257 24.399 58.7233 24.82 60.8492 24.82H63.2753V25.6479C63.2753 28.0207 61.3449 29.9512 58.972 29.9512C56.5991 29.9512 54.6687 28.0207 54.6687 25.6478V25.394ZM37.845 19.54C37.845 15.8585 40.8401 12.8633 44.5217 12.8633C47.8424 12.8633 50.6043 15.3 51.1143 18.4789L48.1879 16.7596C47.4559 16.3296 46.5204 16.491 45.9751 17.142C44.545 18.8487 42.4478 19.8275 40.2211 19.8275H37.845V19.54V19.54ZM30.0497 17.324C31.8174 17.324 33.3396 18.3955 34.0008 19.9227C32.2034 20.8541 30.2043 21.3433 28.1726 21.3433H25.7558C25.9026 19.1025 27.7724 17.324 30.0497 17.324ZM25.7465 24.8198H28.1726C30.3007 24.8198 32.4006 24.3979 34.353 23.5889V25.6476C34.353 28.0203 32.4226 29.9509 30.0497 29.9509C27.6768 29.9509 25.7465 28.0207 25.7465 25.6478V24.8198ZM34.1427 36.481C30.7228 37.3005 28.0351 39.6848 26.7559 42.7698H19.7103V41.2616C19.7103 39.0808 21.1917 37.2036 23.3129 36.6969L27.7399 35.6394C28.5223 35.4525 29.0744 34.7532 29.0744 33.9487V33.3643C29.3942 33.4045 29.7193 33.4276 30.0497 33.4276C30.3777 33.4276 30.7005 33.4048 31.0179 33.3652V33.8611C31.0167 33.887 31.0162 33.9129 31.016 33.9388C31.0157 34.5091 31.2961 35.0678 31.8109 35.4009C32.0049 35.5265 32.2146 35.6082 32.4286 35.6491L35.0215 36.2704L34.1427 36.481ZM38.9914 33.7825C38.5448 33.5856 38.0793 33.4281 37.5996 33.3132L34.4943 32.569V32.0274C35.0547 31.6358 35.5614 31.1729 36.0009 30.651C36.7772 31.847 37.7972 32.8696 38.9914 33.6485V33.7825ZM46.5411 36.3366L44.507 40.963L42.4681 36.3248V35.0843C43.1316 35.2211 43.8184 35.2933 44.5217 35.2933C45.213 35.2933 45.8882 35.2232 46.5411 35.0909V36.3366V36.3366ZM44.5217 31.8165C40.8401 31.8167 37.845 28.8215 37.845 25.1398V23.3039H40.2211C42.9776 23.3039 45.5986 22.2788 47.6073 20.4505L51.192 22.5566V25.3941C51.0578 28.9581 48.1182 31.8165 44.5217 31.8165ZM50.0176 33.7881V33.6704C51.2216 32.892 52.2506 31.8668 53.033 30.6656C53.4695 31.1816 53.9719 31.6394 54.5269 32.0274V32.569L51.4215 33.3132C50.9375 33.4293 50.468 33.5887 50.0176 33.7881ZM69.3113 42.7698H62.2417C60.9613 39.6848 58.2716 37.3018 54.8497 36.4843L53.9769 36.2759L56.5838 35.6512C56.8007 35.6109 57.0138 35.5281 57.2104 35.4009C57.7244 35.0683 58.004 34.5097 58.004 33.9393C58.004 33.9258 58.0038 33.912 58.0034 33.8985V33.3652C58.321 33.4048 58.6436 33.4276 58.9717 33.4276C59.3021 33.4276 59.6272 33.4045 59.947 33.3643V33.9487C59.947 34.7532 60.4991 35.4525 61.2815 35.6394L65.7085 36.6969C67.8297 37.2038 69.3113 39.0808 69.3113 41.2616V42.7698V42.7698Z" fill="white"/>
<path d="M45.7286 51.9031C45.4037 51.5798 44.957 51.3955 44.4998 51.3955C44.0408 51.3955 43.5942 51.5798 43.2709 51.9031C42.9458 52.2281 42.7616 52.6749 42.7616 53.1338C42.7616 53.5909 42.9458 54.0377 43.2709 54.3627C43.5942 54.6861 44.0409 54.8721 44.4998 54.8721C44.957 54.8721 45.4037 54.6861 45.7286 54.3627C46.0519 54.0377 46.2381 53.5909 46.2381 53.1338C46.2381 52.6749 46.0521 52.2281 45.7286 51.9031Z" fill="white"/>
<path d="M44.4986 0C43.5387 0 42.7603 0.778225 42.7603 1.73827V4.33925C42.7603 5.2993 43.5387 6.07753 44.4986 6.07753C45.4585 6.07753 46.2369 5.2993 46.2369 4.33925V1.73827C46.2369 0.778225 45.4587 0 44.4986 0Z" fill="white"/>
<path d="M38.0955 5.67007L36.2721 3.84836C35.5929 3.16974 34.4924 3.17026 33.8138 3.84941C33.1352 4.52855 33.1359 5.62923 33.815 6.30767L35.6386 8.12939C35.9779 8.46852 36.4226 8.63801 36.8671 8.63801C37.3122 8.63801 37.7572 8.468 38.0967 8.12834C38.775 7.4492 38.7747 6.34852 38.0955 5.67007Z" fill="white"/>
<path d="M55.1419 3.89283C54.4628 3.21438 53.3619 3.21473 52.6836 3.89405L50.8743 5.70516C50.1958 6.3843 50.1963 7.48498 50.8755 8.16343C51.215 8.50256 51.6595 8.67204 52.1041 8.67204C52.5493 8.67204 52.9944 8.50204 53.3338 8.16221L55.1431 6.3511C55.8216 5.67196 55.8211 4.57128 55.1419 3.89283Z" fill="white"/>
</g>
<defs>
<clipPath id="clip0">
<rect width="89" height="89" fill="white"/>
</clipPath>
</defs>
</svg>
