<svg width="94" height="94" viewBox="0 0 94 94" fill="none" xmlns="http://www.w3.org/2000/svg">
<g clip-path="url(#clip0)">
<path d="M93.8188 51.342C92.9748 42.8529 89.1822 34.8497 83.1393 28.8066C77.9751 23.6426 71.6543 20.3241 65.0033 18.8485V14.1837C67.7198 13.5079 69.739 11.049 69.739 8.12632C69.739 4.68425 66.9388 1.88403 63.4967 1.88403H50.2777C46.8357 1.88403 44.0355 4.68425 44.0355 8.12632C44.0355 11.0488 46.0547 13.5077 48.771 14.1837V18.8616C42.1404 20.3434 35.8404 23.6573 30.6909 28.8068C29.564 29.9337 28.5249 31.1159 27.5736 32.3445C27.5276 32.3411 27.4815 32.3376 27.4345 32.3376H14.3512C13.3374 32.3376 12.5152 33.1595 12.5152 34.1735C12.5152 35.1875 13.3374 36.0095 14.3512 36.0095H25.0754C23.7293 38.2632 22.6439 40.6299 21.8177 43.0662H1.83597C0.822146 43.0662 0 43.8882 0 44.9022C0 45.9162 0.822146 46.7382 1.83597 46.7382H20.7802C20.2511 49.0608 19.9474 51.4246 19.869 53.7951H11.7502C10.7364 53.7951 9.91422 54.617 9.91422 55.631C9.91422 56.645 10.7364 57.467 11.7502 57.467H19.9276C20.0825 59.8435 20.4646 62.2075 21.074 64.5239H9.17983C8.16601 64.5239 7.34386 65.3459 7.34386 66.3599C7.34386 67.3739 8.16601 68.1958 9.17983 68.1958H22.2457C24.0467 72.9603 26.8615 77.426 30.6909 81.2554C36.7397 87.3042 44.7511 91.0977 53.2491 91.9373C54.4619 92.057 55.6757 92.1163 56.8878 92.1163C64.0521 92.1163 71.1253 90.0429 77.1271 86.1345C77.9768 85.5811 78.2171 84.4438 77.6638 83.5941C77.1104 82.7444 75.973 82.5041 75.1233 83.0574C61.9857 91.6125 44.3911 89.7627 33.2874 78.659C20.259 65.6306 20.259 44.432 33.2874 31.4034C46.3156 18.3752 67.5142 18.3752 80.5427 31.4034C91.6318 42.4927 93.4916 60.0722 84.9648 73.2034C84.4126 74.0538 84.6544 75.191 85.5046 75.7431C86.3554 76.2954 87.4922 76.0536 88.0443 75.2032C92.6001 68.187 94.6508 59.7131 93.8188 51.342ZM47.7074 8.1265C47.7074 6.70914 48.8604 5.55615 50.2777 5.55615H63.4967C64.9141 5.55615 66.0671 6.70914 66.0671 8.1265C66.0671 9.54387 64.9141 10.6969 63.4967 10.6969H63.1673H50.6069H50.2777C48.8604 10.6969 47.7074 9.54368 47.7074 8.1265ZM52.4429 18.2304V14.3688H61.3314V18.2238C58.3799 17.8727 55.3939 17.8749 52.4429 18.2304Z" fill="white"/>
<path d="M81.8419 78.1204C81.3572 78.1204 80.8853 78.3168 80.544 78.6583C80.2007 78.9998 80.0059 79.4734 80.0059 79.9563C80.0059 80.4392 80.2007 80.9128 80.544 81.2543C80.8853 81.5976 81.3574 81.7922 81.8419 81.7922C82.3247 81.7922 82.7965 81.5976 83.1399 81.2543C83.4814 80.9128 83.6778 80.4392 83.6778 79.9563C83.6778 79.4734 83.4815 78.9998 83.1399 78.6583C82.7965 78.3168 82.3245 78.1204 81.8419 78.1204Z" fill="white"/>
<path d="M56.9151 26.5497C41.2106 26.5497 28.434 39.3262 28.434 55.0308C28.434 70.7355 41.2106 83.512 56.9151 83.512C72.6196 83.512 85.3963 70.7355 85.3963 55.0308C85.3963 39.3262 72.6196 26.5497 56.9151 26.5497ZM56.9151 79.8401C43.2352 79.8401 32.1059 68.7106 32.1059 55.0308C32.1059 41.3511 43.2352 30.2216 56.9151 30.2216C70.5951 30.2216 81.7243 41.3511 81.7243 55.0308C81.7243 68.7106 70.5951 79.8401 56.9151 79.8401Z" fill="white"/>
<path d="M68.5287 40.8209L59.4352 49.9143C58.6747 49.5383 57.8193 49.3258 56.9151 49.3258C56.0107 49.3258 55.1555 49.5383 54.3951 49.9143L50.3253 45.8445C49.6082 45.1275 48.446 45.1275 47.7287 45.8445C47.0117 46.5614 47.0117 47.724 47.7287 48.4409L51.7985 52.5107C51.4223 53.2712 51.21 54.1265 51.21 55.0307C51.21 58.1765 53.7692 60.7358 56.9151 60.7358C60.0611 60.7358 62.6202 58.1765 62.6202 55.0307C62.6202 54.1265 62.4078 53.2712 62.0318 52.5107L70.8584 43.6841L71.1251 43.4173C71.8421 42.7004 71.8421 41.5379 71.1251 40.8209C70.4082 40.104 69.246 40.104 68.5287 40.8209ZM56.9151 57.0641C55.7941 57.0641 54.882 56.152 54.882 55.0309C54.882 53.9099 55.7941 52.9978 56.9151 52.9978C58.0362 52.9978 58.9483 53.9099 58.9483 55.0309C58.9483 56.152 58.0362 57.0641 56.9151 57.0641Z" fill="white"/>
<path d="M76.5451 53.2173H74.8441C73.8303 53.2173 73.0081 54.0392 73.0081 55.0532C73.0081 56.0672 73.8303 56.8892 74.8441 56.8892H76.5451C77.5589 56.8892 78.381 56.0672 78.381 55.0532C78.381 54.0392 77.5589 53.2173 76.5451 53.2173Z" fill="white"/>
<path d="M38.986 53.1725H37.2852C36.2714 53.1725 35.4492 53.9944 35.4492 55.0084C35.4492 56.0224 36.2714 56.8444 37.2852 56.8444H38.986C39.9998 56.8444 40.8219 56.0224 40.8219 55.0084C40.8219 53.9944 39.9998 53.1725 38.986 53.1725Z" fill="white"/>
<path d="M56.9375 38.9376C57.9513 38.9376 58.7734 38.1157 58.7734 37.1017V35.4009C58.7734 34.3869 57.9513 33.5649 56.9375 33.5649C55.9237 33.5649 55.1016 34.3869 55.1016 35.4009V37.1017C55.1016 38.1157 55.9237 38.9376 56.9375 38.9376Z" fill="white"/>
<path d="M56.8927 71.124C55.8789 71.124 55.0568 71.946 55.0568 72.96V74.6608C55.0568 75.6748 55.8789 76.4967 56.8927 76.4967C57.9065 76.4967 58.7286 75.6748 58.7286 74.6608V72.96C58.7286 71.946 57.9065 71.124 56.8927 71.124Z" fill="white"/>
<path d="M1.83594 64.5232C1.35309 64.5232 0.879414 64.7196 0.53793 65.0611C0.196445 65.4026 0 65.8763 0 66.3591C0 66.8438 0.196262 67.3157 0.53793 67.6571C0.879598 67.9986 1.35309 68.1951 1.83594 68.1951C2.31879 68.1951 2.79246 67.9986 3.13376 67.6571C3.47525 67.3157 3.67188 66.842 3.67188 66.3591C3.67188 65.8763 3.47543 65.4026 3.13376 65.0611C2.79246 64.7196 2.31879 64.5232 1.83594 64.5232Z" fill="white"/>
</g>
<defs>
<clipPath id="clip0">
<rect width="94" height="94" fill="white"/>
</clipPath>
</defs>
</svg>
