<svg width="44" height="44" viewBox="0 0 44 44" fill="none" xmlns="http://www.w3.org/2000/svg">
<path d="M33.3793 21.2415C32.9605 21.2415 32.6207 21.5806 32.6207 22.0001V26.5518C32.6207 32.4084 27.8565 37.1725 22 37.1725C16.1434 37.1725 11.3793 32.4084 11.3793 26.5518V22.0001C11.3793 21.5806 11.0394 21.2415 10.6207 21.2415C10.2019 21.2415 9.86206 21.5806 9.86206 22.0001V26.5518C9.86206 32.9887 14.9023 38.2566 21.2414 38.651V42.4828H17.4483C17.0295 42.4828 16.6896 42.8219 16.6896 43.2415C16.6896 43.661 17.0295 44.0001 17.4483 44.0001H26.5517C26.9705 44.0001 27.3103 43.661 27.3103 43.2415C27.3103 42.8219 26.9705 42.4828 26.5517 42.4828H22.7586V38.651C29.0976 38.2566 34.1379 32.9879 34.1379 26.5518V22.0001C34.1379 21.5806 33.7981 21.2415 33.3793 21.2415Z" fill="white"/>
<path d="M22 34.8966C26.601 34.8966 30.3448 31.1528 30.3448 26.5517V8.34483C30.3448 3.74379 26.601 0 22 0C17.3989 0 13.6552 3.74379 13.6552 8.34483V26.5517C13.6552 31.1528 17.3989 34.8966 22 34.8966ZM15.1724 8.34483C15.1724 4.57979 18.2357 1.51724 22 1.51724C25.7643 1.51724 28.8276 4.57979 28.8276 8.34483V26.5517C28.8276 30.3168 25.7643 33.3793 22 33.3793C18.2357 33.3793 15.1724 30.3168 15.1724 26.5517V8.34483Z" fill="white"/>
</svg>
