<svg width="39" height="39" viewBox="0 0 39 39" fill="none" xmlns="http://www.w3.org/2000/svg">
<path d="M19.5 0C8.7477 0 0 8.7477 0 19.5C0 30.2523 8.7477 39 19.5 39C30.2523 39 39 30.2523 39 19.5C39 8.7477 30.2523 0 19.5 0ZM19.5 37.7C9.46465 37.7 1.3 29.5353 1.3 19.5C1.3 9.46465 9.46465 1.3 19.5 1.3C29.5353 1.3 37.7 9.46465 37.7 19.5C37.7 29.5353 29.5353 37.7 19.5 37.7Z" fill="white"/>
<path d="M19.5 3.8999C19.1412 3.8999 18.85 4.19045 18.85 4.5499V19.4999H9.10001C8.74121 19.4999 8.45001 19.7905 8.45001 20.1499C8.45001 20.5094 8.74121 20.7999 9.10001 20.7999H19.5C19.8588 20.7999 20.15 20.5094 20.15 20.1499V4.5499C20.15 4.19045 19.8588 3.8999 19.5 3.8999Z" fill="white"/>
</svg>
