<svg width="39" height="39" viewBox="0 0 39 39" fill="none" xmlns="http://www.w3.org/2000/svg">
<path d="M38.1136 16.841H33.6818C33.1925 16.841 32.7955 17.2372 32.7955 17.7273V24.8182C32.7955 25.3084 32.3984 25.7046 31.9091 25.7046C31.4198 25.7046 31.0227 25.3084 31.0227 24.8182V7.09098C31.0227 5.62227 29.8323 4.43188 28.3636 4.43188C26.8949 4.43188 25.7045 5.62227 25.7045 7.09098V31.9092C25.7045 32.3993 25.3075 32.7955 24.8182 32.7955C24.3289 32.7955 23.9318 32.3993 23.9318 31.9092V9.75007C23.9318 8.28136 22.7414 7.09098 21.2727 7.09098C19.804 7.09098 18.6136 8.28136 18.6136 9.75007V22.1592C18.6136 22.6493 18.2165 23.0455 17.7273 23.0455C17.238 23.0455 16.8409 22.6493 16.8409 22.1592V7.09098C16.8409 5.62227 15.6505 4.43188 14.1818 4.43188C12.7131 4.43188 11.5227 5.62227 11.5227 7.09098V28.3637C11.5227 28.8539 11.1256 29.2501 10.6364 29.2501C10.1471 29.2501 9.75 28.8539 9.75 28.3637V14.1819C9.75 12.7132 8.55961 11.5228 7.09091 11.5228C5.6222 11.5228 4.43182 12.7132 4.43182 14.1819V16.841H0.886364C0.397091 16.841 0 17.2372 0 17.7273C0 18.2175 0.397091 18.6137 0.886364 18.6137H5.31818C5.80745 18.6137 6.20455 18.2175 6.20455 17.7273V14.1819C6.20455 13.6917 6.60164 13.2955 7.09091 13.2955C7.58018 13.2955 7.97727 13.6917 7.97727 14.1819V28.3637C7.97727 29.8324 9.16766 31.0228 10.6364 31.0228C12.1051 31.0228 13.2955 29.8324 13.2955 28.3637V7.09098C13.2955 6.60082 13.6925 6.20461 14.1818 6.20461C14.6711 6.20461 15.0682 6.60082 15.0682 7.09098V22.1592C15.0682 23.6279 16.2586 24.8182 17.7273 24.8182C19.196 24.8182 20.3864 23.6279 20.3864 22.1592V9.75007C20.3864 9.25991 20.7835 8.8637 21.2727 8.8637C21.762 8.8637 22.1591 9.25991 22.1591 9.75007V31.9092C22.1591 33.3779 23.3495 34.5682 24.8182 34.5682C26.2869 34.5682 27.4773 33.3779 27.4773 31.9092V7.09098C27.4773 6.60082 27.8744 6.20461 28.3636 6.20461C28.8529 6.20461 29.25 6.60082 29.25 7.09098V24.8182C29.25 26.287 30.4404 27.4773 31.9091 27.4773C33.3778 27.4773 34.5682 26.287 34.5682 24.8182V18.6137H38.1136C38.6029 18.6137 39 18.2175 39 17.7273C39 17.2372 38.6029 16.841 38.1136 16.841Z" fill="white"/>
</svg>
