<svg width="73" height="73" viewBox="0 0 73 73" fill="none" xmlns="http://www.w3.org/2000/svg">
<path d="M72.7665 30.7357L61.0765 12.9099C60.8128 12.5081 60.3649 12.266 59.8844 12.266H13.1711C12.6916 12.266 12.2443 12.5069 11.9806 12.9075L0.271749 30.6801C0.216001 30.7569 0.167667 30.8399 0.127318 30.9286C-0.103801 31.4382 -0.015403 32.0357 0.353304 32.4566L6.28812 39.2329C6.80696 39.8253 7.70748 39.8849 8.29975 39.3662C8.89202 38.8474 8.95162 37.9467 8.43292 37.3546L4.56948 32.9431H23.7464L33.3828 65.8426L22.4934 53.409C21.9747 52.8166 21.0739 52.757 20.4818 53.2757C19.8895 53.7946 19.8299 54.6952 20.3486 55.2874L35.4319 72.5095C35.7026 72.8186 36.0936 72.996 36.5044 72.996C36.9153 72.996 37.3061 72.8186 37.5767 72.5094L53.6353 54.1693C54.1542 53.5769 54.0944 52.6762 53.5019 52.1576C52.9093 51.6388 52.0086 51.6985 51.4902 52.2911L39.6263 65.8407L49.2623 32.943H68.4312L59.5653 43.0689C59.0464 43.6613 59.1062 44.5619 59.6987 45.0805C59.9692 45.3175 60.304 45.4337 60.6373 45.4337C61.034 45.4337 61.4286 45.269 61.7104 44.947L72.647 32.4565C73.0687 31.9749 73.1176 31.2711 72.7665 30.7357ZM4.07388 30.0918L13.1682 16.2873L22.2212 30.0918H4.07388ZM15.8108 15.1174H33.8644L24.8377 28.882L15.8108 15.1174ZM36.5043 16.2914L45.5544 30.0918H27.4541L36.5043 16.2914ZM36.5043 66.3563L26.7174 32.9431H46.2911L36.5043 66.3563ZM48.1942 28.9178L39.1441 15.1174H57.2447L48.1942 28.9178ZM50.8341 30.0918L59.8844 16.2914L68.9344 30.0918H50.8341Z" fill="black"/>
<path d="M22.4117 46.6255C18.7342 46.6255 15.7422 43.6335 15.7422 39.956C15.7422 39.1687 15.1039 38.5303 14.3166 38.5303C13.5292 38.5303 12.8909 39.1687 12.8909 39.956C12.8909 43.6335 9.89892 46.6255 6.2214 46.6255C5.43423 46.6255 4.79576 47.2638 4.79576 48.0511C4.79576 48.8385 5.43423 49.4768 6.2214 49.4768C9.89892 49.4768 12.8909 52.4688 12.8909 56.1463C12.8909 56.9336 13.5294 57.5719 14.3166 57.5719C15.1037 57.5719 15.7422 56.9336 15.7422 56.1463C15.7422 52.4688 18.7342 49.4768 22.4117 49.4768C23.199 49.4768 23.8374 48.8385 23.8374 48.0511C23.8374 47.2638 23.199 46.6255 22.4117 46.6255ZM14.3166 51.1395C13.5394 49.8874 12.4803 48.8285 11.2283 48.0511C12.4803 47.2739 13.5392 46.215 14.3166 44.9628C15.0938 46.2149 16.1528 47.2738 17.4048 48.0511C16.1528 48.8285 15.0939 49.8873 14.3166 51.1395Z" fill="black"/>
<path d="M71.5744 5.7064C69.2161 5.7064 67.2974 3.78773 67.2974 1.42948C67.2974 0.642167 66.659 0.00384521 65.8718 0.00384521C65.0846 0.00384521 64.4462 0.642167 64.4462 1.42948C64.4462 3.78773 62.5275 5.7064 60.1692 5.7064C59.3821 5.7064 58.7436 6.34472 58.7436 7.13204C58.7436 7.91935 59.3821 8.55768 60.1692 8.55768C62.5275 8.55768 64.4462 10.4764 64.4462 12.8346C64.4462 13.6219 65.0846 14.2602 65.8718 14.2602C66.659 14.2602 67.2974 13.6219 67.2974 12.8346C67.2974 10.4764 69.2161 8.55768 71.5744 8.55768C72.3615 8.55768 73 7.91935 73 7.13204C73 6.34472 72.3615 5.7064 71.5744 5.7064ZM65.8718 8.5621C65.465 8.02059 64.9833 7.53881 64.4417 7.13204C64.9833 6.72526 65.465 6.24349 65.8718 5.70198C66.2786 6.24349 66.7603 6.72526 67.3019 7.13204C66.7603 7.53867 66.2784 8.02059 65.8718 8.5621Z" fill="black"/>
<path d="M57.428 47.8166C57.163 47.5499 56.7951 47.3988 56.4203 47.3988C56.0452 47.3988 55.679 47.5499 55.4124 47.8166C55.1472 48.0818 54.9947 48.4496 54.9947 48.8244C54.9947 49.1993 55.1471 49.5671 55.4124 49.8323C55.6776 50.0975 56.0452 50.2501 56.4203 50.2501C56.7953 50.2501 57.163 50.0975 57.428 49.8323C57.6932 49.5671 57.8459 49.1993 57.8459 48.8244C57.8459 48.4496 57.6934 48.0818 57.428 47.8166Z" fill="black"/>
</svg>
