<svg width="78" height="78" viewBox="0 0 78 78" fill="none" xmlns="http://www.w3.org/2000/svg">
<path d="M75.4009 37.6997C74.8907 37.7163 74.369 38.0145 74.1673 38.5163L73.0086 41.4143L70.1302 30.8598C69.9881 30.3401 69.5401 29.962 69.0045 29.9087C68.4588 29.8504 67.9549 30.1397 67.7139 30.6207L64.1743 37.6997H62.1846C64.0015 34.1103 64.9776 30.1236 64.9776 26.0037C64.9776 11.6724 53.3185 0.0125732 38.9865 0.0125732C24.6545 0.0125732 12.9954 11.6724 12.9954 26.0037C12.9954 30.1251 13.9725 34.1129 15.7904 37.7031L15.6212 37.6997C15.0982 37.7163 14.5893 38.0145 14.3875 38.5163L13.2288 41.4143L10.3505 30.8598C10.2083 30.3401 9.76032 29.962 9.22474 29.9087C8.67389 29.8504 8.17518 30.1397 7.93411 30.6207L4.39461 37.6997H0V40.2988H5.19822C5.69059 40.2988 6.13991 40.0209 6.36068 39.5805L8.73773 34.8252L11.7417 45.8391C11.8888 46.3778 12.3635 46.7625 12.922 46.7948C12.946 46.7961 12.9715 46.7968 12.9956 46.7968C13.5248 46.7968 14.0045 46.4751 14.2025 45.9801L16.4678 40.3168L17.3397 40.3344C18.0066 41.3363 18.7237 42.3097 19.534 43.2205C19.5695 43.3601 19.6291 43.4952 19.7117 43.619C23.9771 50.0166 24.2258 51.3421 24.9658 55.2777C25.1029 56.0004 25.2538 56.8032 25.4455 57.727C25.7762 59.3389 26.7198 60.6513 27.9908 61.4723C27.5519 62.1031 27.2907 62.8661 27.2907 63.6911C27.2907 65.0757 28.0212 66.2862 29.1118 66.9779C28.7894 67.5451 28.5902 68.1915 28.5902 68.8894C28.5902 70.2739 29.3207 71.4844 30.4114 72.1761C30.0889 72.7434 29.8898 73.3897 29.8898 74.0876C29.8898 76.2374 31.6387 77.9863 33.7885 77.9863H44.1849C46.3347 77.9863 48.0836 76.2374 48.0836 74.0876C48.0836 73.3897 47.8844 72.7435 47.562 72.1761C48.6526 71.4843 49.3831 70.2739 49.3831 68.8894C49.3831 68.1915 49.184 67.5453 48.8615 66.9779C49.9522 66.286 50.6827 65.0757 50.6827 63.6911C50.6827 62.8661 50.4216 62.1032 49.9827 61.4725C51.2537 60.6518 52.1972 59.3404 52.5279 57.7302C52.7196 56.8032 52.8705 56.0005 53.0076 55.2777C53.7475 51.3421 53.9962 50.0166 58.2617 43.619C58.3442 43.4952 58.4038 43.3601 58.4394 43.2205C59.2593 42.299 59.9843 41.3139 60.6574 40.2991H64.9778C65.4702 40.2991 65.9195 40.0212 66.1403 39.5808L68.5173 34.8256L71.5212 45.8395C71.6684 46.3781 72.1431 46.7628 72.7015 46.7951C72.7256 46.7964 72.7511 46.7971 72.7751 46.7971C73.3044 46.7971 73.7841 46.4754 73.9821 45.9805L76.2474 40.3172L77.9467 40.3514L78 37.7523L75.4009 37.6997ZM44.1849 75.3868H33.7885C33.0714 75.3868 32.4889 74.8036 32.4889 74.0873C32.4889 73.3709 33.0714 72.7877 33.7885 72.7877H44.1849C44.9019 72.7877 45.4845 73.3709 45.4845 74.0873C45.4845 74.8036 44.9019 75.3868 44.1849 75.3868ZM45.4845 70.1886H44.1849H33.7885H32.4889C31.7719 70.1886 31.1893 69.6054 31.1893 68.889C31.1893 68.1727 31.7719 67.5895 32.4889 67.5895H45.4845C46.2015 67.5895 46.784 68.1727 46.784 68.889C46.784 69.6054 46.2015 70.1886 45.4845 70.1886ZM46.784 64.9904H45.4845H32.4889H31.1893C30.4723 64.9904 29.8898 64.4072 29.8898 63.6908C29.8898 62.9744 30.4723 62.3913 31.1893 62.3913H46.784C47.501 62.3913 48.0836 62.9744 48.0836 63.6908C48.0836 64.4072 47.501 64.9904 46.784 64.9904ZM56.0268 42.0058C55.8148 42.2311 55.6943 42.5198 55.6753 42.8167C51.519 49.126 51.1978 50.838 50.453 54.797C50.3198 55.5051 50.1713 56.2926 49.9822 57.2051C49.67 58.728 48.4021 59.7922 46.9008 59.7922H46.784H44.4338L47.8737 40.2988H49.3831C51.5329 40.2988 53.2818 38.5499 53.2818 36.4001V31.2019H57.1805C57.8988 31.2019 58.48 30.62 58.48 29.9024V23.4046C58.48 21.2548 56.7311 19.5059 54.5814 19.5059V15.6072C54.5814 13.4575 52.8325 11.7086 50.6827 11.7086H49.3831C49.3831 9.55879 47.6343 7.80991 45.4845 7.80991H41.5858C40.8675 7.80991 40.2862 8.39179 40.2862 9.10947V38.9993C40.2862 39.7169 40.8675 40.2988 41.5858 40.2988H45.2356L41.7957 59.7922H36.1779L32.7379 40.2988H36.3876C37.1059 40.2988 37.6871 39.7169 37.6871 38.9993V9.10947C37.6871 8.39179 37.1059 7.80991 36.3876 7.80991H32.4889C30.3391 7.80991 28.5902 9.55879 28.5902 11.7086H27.2907C25.1409 11.7086 23.392 13.4575 23.392 15.6072V19.5059C21.2422 19.5059 19.4933 21.2548 19.4933 23.4046V32.5015C19.4933 33.2192 20.0746 33.801 20.7929 33.801H24.6916V36.4001C24.6916 38.5499 26.4404 40.2988 28.5902 40.2988H30.0997L33.5396 59.7922H31.1893H31.0725C29.5712 59.7922 28.3034 58.728 27.9911 57.202C27.8021 56.2926 27.6536 55.5052 27.5204 54.797C26.7754 50.838 26.4543 49.126 22.2981 42.8167C22.2791 42.5198 22.1586 42.2311 21.9466 42.0058C17.8499 37.6667 15.5947 31.9843 15.5947 26.0037C15.5947 13.1053 26.0889 2.61169 38.9867 2.61169C51.8844 2.61169 62.3787 13.1053 62.3787 26.0037C62.3787 31.9843 60.1235 37.6667 56.0268 42.0058ZM48.0836 22.105V18.2064C48.0836 17.4887 47.5023 16.9068 46.784 16.9068H42.8853V10.409H45.4845C46.2015 10.409 46.784 10.9922 46.784 11.7086V13.0081C46.784 13.7258 47.3652 14.3077 48.0836 14.3077H50.6827C51.3997 14.3077 51.9822 14.8909 51.9822 15.6072V20.8055C51.9822 21.5231 52.5635 22.105 53.2818 22.105H54.5814C55.2984 22.105 55.8809 22.6882 55.8809 23.4046V28.6028H51.9822H46.784C46.0657 28.6028 45.4845 29.1847 45.4845 29.9024V32.5015H48.0836V31.2019H50.6827V36.4001C50.6827 37.1165 50.1002 37.6997 49.3831 37.6997H42.8853V19.5059H45.4845V22.105H48.0836ZM25.9911 26.0037C25.2728 26.0037 24.6916 26.5856 24.6916 27.3032V31.2019H22.0925V23.4046C22.0925 22.6882 22.675 22.105 23.392 22.105H24.6916C25.4099 22.105 25.9911 21.5231 25.9911 20.8055V15.6072C25.9911 14.8909 26.5736 14.3077 27.2907 14.3077H28.5902V16.9068H31.1893V13.0081V11.7086C31.1893 10.9922 31.7719 10.409 32.4889 10.409H35.088V37.6997H28.5902C27.8732 37.6997 27.2907 37.1165 27.2907 36.4001V32.5015V28.6028H29.8898V26.0037H25.9911Z" fill="black"/>
</svg>
