<svg width="83" height="83" viewBox="0 0 83 83" fill="none" xmlns="http://www.w3.org/2000/svg">
<path d="M75.2188 0H7.78125C3.48373 0 0 3.48373 0 7.78125V75.2188C0 79.5163 3.48373 83 7.78125 83H75.2188C79.5163 83 83 79.5163 83 75.2188V7.78125C83 3.48373 79.5163 0 75.2188 0ZM79.5 75.2188C79.5 76.6513 76.6513 79.5 75.2188 79.5H41.5H7.78125C6.34869 79.5 3.5 76.6513 3.5 75.2188V7.78125C3.5 6.34869 6.34869 3.5 7.78125 3.5H41.5H75.2188C76.6513 3.5 79.5 6.34869 79.5 7.78125V75.2188Z" fill="black"/>
<path d="M32.75 38.9062H24.25V28.5312H20V54.4688H24.25V44.0938H32.75V54.4688H37V28.5312H32.75V38.9062Z" fill="black"/>
<path d="M61.1215 44.0938V38.9063C61.1215 33.1763 57.1418 28.5312 52.2326 28.5312C47.3235 28.5312 43.3438 33.1763 43.3438 38.9063V44.0938C43.3438 49.8237 47.3235 54.4688 52.2326 54.4688C53.5831 54.4551 54.9129 54.0826 56.1215 53.3794C56.9153 54.0987 57.8944 54.4825 58.8993 54.4688H63.3438V49.2813H59.9215C60.7049 47.7051 61.1188 45.9159 61.1215 44.0938ZM56.6771 44.0938C56.6771 46.9587 54.6872 49.2813 52.2326 49.2813C49.7781 49.2813 47.7882 46.9587 47.7882 44.0938V38.9063C47.7882 36.0413 49.7781 33.7188 52.2326 33.7188C54.6872 33.7188 56.6771 36.0413 56.6771 38.9063V44.0938Z" fill="black"/>
</svg>
