<svg width="81" height="81" viewBox="0 0 81 81" fill="none" xmlns="http://www.w3.org/2000/svg">
<path d="M61.4483 39.1035C60.6774 39.1035 60.0517 39.7277 60.0517 40.5V48.8793C60.0517 59.6607 51.2814 68.431 40.5 68.431C29.7186 68.431 20.9483 59.6607 20.9483 48.8793V40.5C20.9483 39.7277 20.3226 39.1035 19.5517 39.1035C18.7808 39.1035 18.1552 39.7277 18.1552 40.5V48.8793C18.1552 60.7291 27.4339 70.4267 39.1034 71.1529V78.2069H32.1207C31.3498 78.2069 30.7241 78.8312 30.7241 79.6035C30.7241 80.3757 31.3498 81 32.1207 81H48.8793C49.6502 81 50.2759 80.3757 50.2759 79.6035C50.2759 78.8312 49.6502 78.2069 48.8793 78.2069H41.8966V71.1529C53.5661 70.4267 62.8448 60.7277 62.8448 48.8793V40.5C62.8448 39.7277 62.2192 39.1035 61.4483 39.1035Z" fill="black"/>
<path d="M40.5 64.2414C48.9701 64.2414 55.8621 57.3494 55.8621 48.8793V15.3621C55.8621 6.89198 48.9701 0 40.5 0C32.0299 0 25.1379 6.89198 25.1379 15.3621V48.8793C25.1379 57.3494 32.0299 64.2414 40.5 64.2414ZM27.931 15.3621C27.931 8.43098 33.5703 2.7931 40.5 2.7931C47.4297 2.7931 53.069 8.43098 53.069 15.3621V48.8793C53.069 55.8104 47.4297 61.4483 40.5 61.4483C33.5703 61.4483 27.931 55.8104 27.931 48.8793V15.3621Z" fill="black"/>
</svg>
